<?xml version="1.0" encoding="utf-8"?>
<!-- Generator: Adobe Illustrator 24.0.2, SVG Export Plug-In . SVG Version: 6.00 Build 0)  -->
<svg version="1.1" id="Capa_1" xmlns="http://www.w3.org/2000/svg" xmlns:xlink="http://www.w3.org/1999/xlink" x="0px" y="0px"
	 viewBox="0 0 200 200" style="enable-background:new 0 0 200 200;" xml:space="preserve">
<style type="text/css">
	.st0{fill:#EE4323;}
</style>
<path class="st0" d="M71.3,196.6c-11.6-5-22.4-17.7-22.5-30.8c0-14.2,9-26.3,20.2-34.2c-1.3,5.1-2.1,9.7,1.3,14.3
	c3.1,4.2,8.5,6.3,13.6,5.2c12-2.6,12.5-15.8,5.4-23.5c-7-7.6-13.8-16.2-11.1-27.2c1.3-5.5,4.7-10.7,9-14.4
	c-3.3,8.7,6.1,17.2,12.3,21.5c10.7,7.4,22.5,13,32.3,21.6c10.4,9.1,18,21.4,16.5,35.7c-1.7,15.5-14,26.2-27.8,31.7
	c29.2-6.4,59.3-29.1,59.9-61.4c0.5-26.6-17.7-47.1-40.3-58.8l-1.2-0.6c0.6,1.5,0.8,2.8,0.8,3.9c0.2-0.9,0.3-1.7,0.4-2.6
	c0,1.1-0.1,2.1-0.4,3.2v-0.5c-0.3,1.4-0.9,2.8-1.7,4l0.3-0.4c-4.5,7.5-16.7,9.1-22.8,1.4c-9.7-12.5,0.2-25.9,1.6-39.1
	c1.7-16.5-8.6-32.6-21.5-42.2c7.1,11.5-2.2,26.6-9.7,35.1C78.8,46.7,70,53.6,62,61c-8.6,8-16.8,16.5-23.9,25.9
	c-14.1,18.8-22.7,42.5-16.4,66S48.4,191.3,71.3,196.6L71.3,196.6z"/>
</svg>
