<?xml version="1.0" encoding="utf-8"?>
<!-- Generator: Adobe Illustrator 24.0.2, SVG Export Plug-In . SVG Version: 6.00 Build 0)  -->
<svg version="1.1" id="Capa_1" xmlns="http://www.w3.org/2000/svg" xmlns:xlink="http://www.w3.org/1999/xlink" x="0px" y="0px"
	 viewBox="0 0 200 200" style="enable-background:new 0 0 200 200;" xml:space="preserve">
<style type="text/css">
	.st0{fill:#F0ECEC;}
	.st1{fill:url(#SVGID_1_);}
	.st2{fill:#EF3F2F;}
</style>
<rect class="st0" width="200" height="200"/>
<linearGradient id="SVGID_1_" gradientUnits="userSpaceOnUse" x1="218.6333" y1="167.9502" x2="68.9353" y2="81.5221">
	<stop  offset="0" style="stop-color:#F0DBD9"/>
	<stop  offset="0.4106" style="stop-color:#D3928C"/>
</linearGradient>
<polygon class="st1" points="96.2,179.3 148.2,200 200.2,200 200.2,75.2 104,20.7 157.8,98.4 "/>
<title>git</title>
<path class="st2" d="M177,107.1L107.1,177c-4,4-10.5,4-14.6,0c0,0,0,0,0,0l-14.5-14.5l18.4-18.4c6.4,2.2,13.3-1.2,15.5-7.6
	c0.9-2.6,0.9-5.4,0-8l17.7-17.7c6.4,2.2,13.4-1.2,15.6-7.6c2.2-6.4-1.2-13.4-7.6-15.6c-6.4-2.2-13.4,1.2-15.6,7.6
	c-1,2.8-0.9,5.9,0.3,8.7l-16.5,16.5V76.8c6.1-3,8.5-10.3,5.5-16.4s-10.3-8.5-16.4-5.5c-6.1,3-8.5,10.3-5.5,16.4
	c1.3,2.7,3.6,4.8,6.3,5.9v43.9c-6.3,2.6-9.3,9.7-6.7,16c0,0,0,0.1,0,0.1l-18.1,18.1L23,107.4c-4-4-4-10.5,0-14.6L92.9,23
	c4-4,10.5-4,14.6,0L177,92.6C181,96.6,181,103.1,177,107.1"/>
</svg>
