<?xml version="1.0" encoding="utf-8"?>
<!-- Generator: Adobe Illustrator 24.0.2, SVG Export Plug-In . SVG Version: 6.00 Build 0)  -->
<svg version="1.1" id="Capa_1" xmlns="http://www.w3.org/2000/svg" xmlns:xlink="http://www.w3.org/1999/xlink" x="0px" y="0px"
	 viewBox="0 0 200 200" style="enable-background:new 0 0 200 200;" xml:space="preserve">
<style type="text/css">
	.st0{fill:#E76F00;}
	.st1{fill:#5382A1;}
</style>
<g>
	<title>js</title>
	<path class="st0" d="M145.6,157h-0.7v-0.4h2v0.4h-0.7v2.1h-0.5V157H145.6z M149.6,157.1L149.6,157.1l-0.7,2h-0.3l-0.7-2l0,0v2h-0.5
		v-2.5h0.7l0.7,1.8l0.7-1.8h0.7v2.5h-0.5L149.6,157.1z"/>
	<path class="st1" d="M79.3,106.2c0,0-5.2,3,3.7,4c10.7,1.2,16.2,1,27.9-1.2c0,0,3.1,1.9,7.4,3.6C91.9,123.9,58.5,112,79.3,106.2
		 M76,91.4c0,0-5.8,4.3,3,5.2c11.4,1.2,20.4,1.3,36-1.7c0,0,2.2,2.2,5.6,3.4C88.8,107.6,53.2,99,76,91.4"/>
	<path class="st0" d="M103.2,66.3c6.5,7.5-1.7,14.2-1.7,14.2s16.5-8.5,8.9-19.2c-7.1-10-12.5-14.9,16.9-32
		C127.4,29.4,81.2,40.9,103.2,66.3"/>
	<path class="st1" d="M138.2,117.1c0,0,3.8,3.1-4.2,5.6c-15.2,4.6-63.5,6-76.8,0.2c-4.8-2.1,4.2-5,7.1-5.6c3-0.6,4.7-0.5,4.7-0.5
		c-5.4-3.8-34.6,7.4-14.9,10.6C107.8,136.1,152.1,123.4,138.2,117.1 M81.7,76.1c0,0-24.5,5.8-8.7,7.9c6.7,0.9,20,0.7,32.4-0.3
		c10.1-0.9,20.3-2.7,20.3-2.7s-3.6,1.5-6.2,3.3c-24.9,6.5-73,3.5-59.2-3.2C72.2,75.5,81.7,76.1,81.7,76.1 M125.7,100.7
		c25.3-13.2,13.6-25.8,5.4-24.1c-2,0.4-2.9,0.8-2.9,0.8s0.7-1.2,2.2-1.7c16.2-5.7,28.6,16.8-5.2,25.6
		C125.2,101.3,125.6,101,125.7,100.7"/>
	<path class="st0" d="M110.5,1.8c0,0,14,14-13.3,35.6c-21.9,17.3-5,27.2,0,38.4C84.4,64.3,75,54.2,81.3,44.7
		C90.5,30.8,116.1,24.1,110.5,1.8"/>
	<path class="st1" d="M84.2,136.3c24.3,1.6,61.6-0.9,62.5-12.4c0,0-1.7,4.4-20.1,7.8c-20.7,3.9-46.3,3.4-61.5,0.9
		C65.2,132.7,68.3,135.3,84.2,136.3"/>
	<path class="st0" d="M80.2,180.3c-2.3,2-4.7,3.1-6.9,3.1c-3.1,0-4.8-1.9-4.8-4.8c0-3.2,1.8-5.6,9-5.6h2.7L80.2,180.3 M86.6,187.4
		v-22.1c0-5.6-3.2-9.4-11-9.4c-4.5,0-8.5,1.1-11.7,2.5l0.9,3.9c2.5-0.9,5.8-1.8,9.1-1.8c4.5,0,6.4,1.8,6.4,5.5v2.8H78
		c-10.9,0-15.8,4.2-15.8,10.5c0,5.5,3.2,8.6,9.3,8.6c3.9,0,6.8-1.6,9.6-4l0.5,3.4L86.6,187.4L86.6,187.4z M107.7,187.4h-7.9
		l-9.5-30.9h6.9l5.9,19l1.3,5.7c3-8.3,5.1-16.6,6.1-24.7h6.7C115.4,166.7,112.2,177.8,107.7,187.4 M137.9,180.3
		c-2.3,2-4.7,3.1-6.9,3.1c-3.1,0-4.8-1.9-4.8-4.8c0-3.2,1.8-5.6,9-5.6h2.7V180.3 M144.3,187.4v-22.1c0-5.6-3.2-9.4-11-9.4
		c-4.5,0-8.5,1.1-11.7,2.5l0.9,3.9c2.5-0.9,5.8-1.8,9.1-1.8c4.5,0,6.4,1.8,6.4,5.5v2.8h-2.2c-10.9,0-15.8,4.2-15.8,10.5
		c0,5.5,3.2,8.6,9.3,8.6c3.9,0,6.8-1.6,9.6-4l0.5,3.4L144.3,187.4L144.3,187.4z M55.3,192.6c-1.8,2.6-4.7,4.7-7.9,5.9l-3.1-3.7
		c2.4-1.2,4.5-3.3,5.5-5.1c0.8-1.7,1.2-3.8,1.2-8.9v-35.3h6.7v34.8C57.7,187.2,57.1,189.9,55.3,192.6"/>
</g>
</svg>
