<?xml version="1.0" encoding="utf-8"?>
<!-- Generator: Adobe Illustrator 24.0.2, SVG Export Plug-In . SVG Version: 6.00 Build 0)  -->
<svg version="1.1" id="Capa_1" xmlns="http://www.w3.org/2000/svg" xmlns:xlink="http://www.w3.org/1999/xlink" x="0px" y="0px"
	 viewBox="0 0 200 200" style="enable-background:new 0 0 200 200;" xml:space="preserve">
<style type="text/css">
	.st0{fill:url(#SVGID_1_);}
	.st1{fill:#6ACEEF;}
</style>
<title>jquery</title>
<linearGradient id="SVGID_1_" gradientUnits="userSpaceOnUse" x1="0" y1="200" x2="200" y2="-3.410605e-13" gradientTransform="matrix(1 0 0 -1 0 200)">
	<stop  offset="0" style="stop-color:#076AAE"/>
	<stop  offset="1" style="stop-color:#3983B5"/>
</linearGradient>
<rect class="st0" width="200" height="200"/>
<path class="st1" d="M44,40.9c-0.1-0.1-0.2-0.1-0.3-0.2c-4.2,5.8-8.4,11.5-12.6,17.4c-7,9.7-10.8,21.3-11,33.3
	c-0.1,9,1.4,17.9,4.4,26.3c9.3,26.7,28.3,44.2,53.5,55.4c15.6,6.9,32,8.5,48.7,5.3c14.2-2.6,26.3-9,35.5-20.3
	c5.2-6.4,9.9-13.3,14.8-19.9c0.1-0.1,0.1-0.2,0.1-0.3c-3.5,2.9-6.9,6.1-10.8,8.7c-14.3,9.6-30.4,11.9-47.1,10.5
	c-10.1-0.9-19.9-3.6-28.9-8.1c-14.1-6.6-26.4-16.4-36.1-28.6c-9.1-11.6-15-25.4-17-40c-1.6-11.1-0.8-21.8,3.5-32.2
	C41.7,45.6,42.9,43.3,44,40.9L44,40.9L44,40.9z M179,95.8c-0.5,0.4-0.9,0.9-1.4,1.3c-2,1.8-4.2,3.5-6.4,5.1
	c-11.3,7.2-23.7,8.4-36.6,6.5c-7.9-1.3-15.4-4.1-22.2-8.4C96.8,90.7,85.9,77.5,82,59.2c-1.9-8.7-1.7-17.3,1.6-25.7
	c0.7-1.8,1.5-3.5,2.3-5.3c-4.3,5.5-8.5,11.1-12.3,16.9c-3.8,5.8-5.8,12.6-5.9,19.6c-0.5,10.5,2.2,20.8,7.8,29.7
	c14.3,22.4,34.4,34.6,61.6,32.8c8.7-0.5,17-3.6,23.9-9C168.8,112.2,173.2,103.5,179,95.8L179,95.8L179,95.8z M179.9,64.1l-0.2-0.2
	c-1.4,1.1-2.8,2.2-4.3,3.2c-7,4.3-15.5,5.8-23.5,4c-13.9-2.7-24.4-10.4-30.7-23.2c-4.3-8.6-5.3-17.7-1.2-26.8c0-0.4,0.1-0.7,0-1.1
	c-2.6,3.7-5.1,7-7.3,10.4c-0.9,1.4-1.7,2.9-2.3,4.5c-3.5,10-1.8,19.5,3.6,28.2c7.5,12.1,18.5,19.3,32.9,20.6
	c8.1,0.7,15.9-0.8,22.2-6.3c3.1-2.8,5.5-6.4,8.2-9.6C178.2,66.6,179,65.3,179.9,64.1L179.9,64.1L179.9,64.1z"/>
</svg>
