<?xml version="1.0" encoding="utf-8"?>
<!-- Generator: Adobe Illustrator 24.0.2, SVG Export Plug-In . SVG Version: 6.00 Build 0)  -->
<svg version="1.1" id="Capa_1" xmlns="http://www.w3.org/2000/svg" xmlns:xlink="http://www.w3.org/1999/xlink" x="0px" y="0px"
	 viewBox="0 0 200 200" style="enable-background:new 0 0 200 200;" xml:space="preserve">
<style type="text/css">
	.st0{fill:#FEE86E;}
	.st1{fill:url(#SVGID_1_);}
	.st2{fill:#F7DF1E;}
	.st3{fill:#F6EC75;}
	.st4{fill:#FFFFFF;}
</style>
<rect class="st0" width="200" height="200"/>
<linearGradient id="SVGID_1_" gradientUnits="userSpaceOnUse" x1="206.5507" y1="193.4493" x2="101.7399" y2="88.6385">
	<stop  offset="0" style="stop-color:#F7F18C"/>
	<stop  offset="1" style="stop-color:#CCC168"/>
</linearGradient>
<polygon class="st1" points="200,51.1 170.1,20.3 41.6,163.5 76.4,200 200,200 "/>
<path class="st2" d="M41.6,163.5L29.9,20l140.2,0.3l-12.4,143.2L100.5,180L41.6,163.5z"/>
<path class="st3" d="M100.5,166.1V33.7l57.7,0.2L148,152.4L100.5,166.1z"/>
<g>
	<path class="st4" d="M94.3,49.4H79.1v88.2l-11.9-2.3v-11.9l-14.1-2.3v26.6l41.3,10.7V49.4z M105.8,49.4H148l-2.8,16.9h-23.3V94
		h23.3l-2.8,56l-36.6,8.5V141l24.7-8.5l1.4-23.2l-26.2,3.8V49.4z"/>
</g>
<title>js</title>
</svg>
