<?xml version="1.0" encoding="utf-8"?>
<!-- Generator: Adobe Illustrator 24.0.2, SVG Export Plug-In . SVG Version: 6.00 Build 0)  -->
<svg version="1.1" id="Capa_1" xmlns="http://www.w3.org/2000/svg" xmlns:xlink="http://www.w3.org/1999/xlink" x="0px" y="0px"
	 viewBox="0 0 200 200" style="enable-background:new 0 0 200 200;" xml:space="preserve">
<style type="text/css">
	.st0{fill:#00618A;}
	.st1{fill:#E48E00;}
	.st2{fill-rule:evenodd;clip-rule:evenodd;fill:#00618A;}
	.st3{fill-rule:evenodd;clip-rule:evenodd;fill:#E48E00;}
</style>
<title>js</title>
<g>
	<path class="st0" d="M4,140.7h6.3v-25l9.8,21.8c1.2,2.6,2.7,3.6,5.8,3.6s4.6-0.9,5.8-3.6l9.8-21.8v25h6.3v-24.9c0-2.4-1-3.6-3-4.2
		c-4.8-1.5-8-0.2-9.5,3l-9.6,21.5l-9.3-21.5c-1.4-3.2-4.7-4.5-9.5-3c-2,0.6-3,1.8-3,4.2V140.7z M53.1,120.4h6.3v13.8
		c-0.1,0.7,0.2,2.5,3.7,2.6c1.8,0,13.6,0,13.8,0v-16.4h6.3c0,0,0,22.3,0,22.4c0,5.5-6.8,6.7-10,6.8h-20v-4.3l20,0
		c4.1-0.4,3.6-2.5,3.6-3.1v-1.7H63.4c-6.3-0.1-10.2-2.8-10.3-5.9C53.1,134.3,53.3,120.5,53.1,120.4L53.1,120.4z"/>
	<path class="st1" d="M88.1,140.7h18.2c2.1,0,4.2-0.4,5.8-1.2c2.7-1.3,4.1-3,4.1-5.2v-4.6c0-1.8-1.5-3.5-4.5-4.7
		c-1.6-0.6-3.5-0.9-5.4-0.9h-7.7c-2.6,0-3.8-0.8-4.1-2.5c-0.1-0.2-0.1-0.4-0.1-0.6v-2.9c0-0.2,0-0.3,0.1-0.5c0.3-1.3,1-1.7,3.2-1.9
		c0.2,0,0.4,0,0.6,0h18.1v-4.2H98.7c-2.6,0-3.9,0.2-5.1,0.5c-3.8,1.2-5.4,3.1-5.4,6.3v3.7c0,2.8,3.2,5.3,8.6,5.8
		c0.6,0,1.2,0.1,1.8,0.1h6.6c0.2,0,0.5,0,0.7,0c2,0.2,2.9,0.5,3.5,1.3c0.4,0.4,0.5,0.7,0.5,1.1v3.7c0,0.4-0.3,1-0.9,1.5
		c-0.5,0.5-1.5,0.8-2.7,0.9c-0.2,0-0.4,0-0.7,0H88.1L88.1,140.7L88.1,140.7z M155.7,133.4c0,4.3,3.2,6.8,9.7,7.3
		c0.6,0,1.2,0.1,1.8,0.1h16.5v-4.2h-16.6c-3.7,0-5.1-0.9-5.1-3.2v-21.8h-6.3L155.7,133.4L155.7,133.4z M120.2,133.6v-15
		c0-3.8,2.7-6.1,8-6.9c0.6-0.1,1.1-0.1,1.7-0.1h12c0.6,0,1.2,0,1.8,0.1c5.3,0.7,8,3,8,6.9v15c0,3.1-1.1,4.8-3.8,5.8l6.2,5.6h-7.3
		l-5-4.6l-5.1,0.3h-6.8c-1.2,0-2.4-0.2-3.7-0.5C122.2,139.2,120.2,137.1,120.2,133.6L120.2,133.6z M127.1,133.2
		c0,0.2,0.1,0.4,0.1,0.7c0.4,1.7,2,2.7,4.5,2.7h5.7l-5.3-4.8h7.3l4.6,4.2c0.8-0.5,1.4-1.1,1.6-2c0.1-0.2,0.1-0.4,0.1-0.6v-14.4
		c0-0.2,0-0.4-0.1-0.6c-0.4-1.6-2-2.6-4.4-2.6h-9.5c-2.8,0-4.6,1.2-4.6,3.1L127.1,133.2L127.1,133.2z"/>
	<g>
		<path class="st0" d="M189.3,104.5c-3.9-0.1-6.9,0.3-9.4,1.3c-0.7,0.3-1.9,0.3-2,1.2c0.4,0.4,0.5,1,0.8,1.5c0.6,1,1.6,2.3,2.5,3
			c1,0.8,2,1.6,3.1,2.2c1.9,1.2,4,1.8,5.9,3c1.1,0.7,2.2,1.5,3.2,2.3c0.5,0.4,0.9,1,1.5,1.2v-0.1c-0.4-0.5-0.4-1.1-0.8-1.5l-1.4-1.4
			c-1.4-1.9-3.2-3.5-5.1-4.9c-1.5-1.1-4.9-2.6-5.5-4.3L182,108c1.1-0.1,2.3-0.5,3.3-0.8c1.7-0.4,3.1-0.3,4.9-0.8l2.3-0.7v-0.4
			c-0.9-0.9-1.5-2.1-2.4-2.9c-2.5-2.1-5.2-4.2-8-6c-1.5-1-3.4-1.6-5.1-2.4c-0.6-0.3-1.5-0.4-1.9-0.9c-0.9-1.1-1.3-2.5-2-3.7
			c-1.4-2.7-2.8-5.6-4-8.4c-0.8-1.9-1.4-3.8-2.4-5.5c-5-8.3-10.4-13.2-18.8-18.1c-1.8-1-3.9-1.5-6.2-2l-3.6-0.2
			c-0.7-0.3-1.5-1.2-2.2-1.7c-2.8-1.8-9.9-5.6-11.9-0.6c-1.3,3.2,1.9,6.2,3.1,7.9c0.8,1.1,1.9,2.4,2.4,3.6c0.4,0.8,0.4,1.7,0.8,2.5
			c0.8,2.2,1.5,4.5,2.5,6.5c0.5,1,1.1,2.1,1.8,3c0.4,0.6,1.1,0.8,1.2,1.7c-0.7,1-0.7,2.4-1.1,3.6c-1.7,5.4-1.1,12.2,1.4,16.3
			c0.8,1.2,2.6,3.9,5.1,2.9c2.2-0.9,1.7-3.6,2.3-6.1c0.1-0.6,0.1-1,0.3-1.3v0.1l2,4c1.5,2.4,4.1,4.9,6.3,6.5
			c1.1,0.9,2.1,2.4,3.5,2.9v-0.1h-0.1c-0.3-0.4-0.7-0.6-1.1-1c-0.9-0.8-1.8-1.9-2.5-2.9c-2-2.7-3.8-5.7-5.4-8.8
			c-0.8-1.5-1.4-3.1-2.1-4.6c-0.3-0.6-0.2-1.5-0.8-1.8c-0.7,1.1-1.8,2-2.3,3.3c-0.9,2.1-1,4.6-1.3,7.3c-0.2,0.1-0.1,0-0.2,0.1
			c-1.5-0.4-2.1-2-2.7-3.3c-1.4-3.4-1.7-9-0.4-12.9c0.3-1,1.8-4.3,1.2-5.2c-0.3-0.9-1.2-1.5-1.8-2.2c-0.7-0.9-1.3-2.1-1.8-3.1
			c-1.2-2.7-1.7-5.7-3-8.4c-0.6-1.3-1.6-2.6-2.4-3.7c-0.9-1.3-1.9-2.2-2.7-3.7c-0.3-0.5-0.6-1.4-0.2-2c0.1-0.3,0.3-0.6,0.7-0.7
			c0.6-0.5,2.4,0.2,3.1,0.4c1.8,0.7,3.3,1.4,4.8,2.4c0.7,0.5,1.5,1.4,2.3,1.7h1c1.6,0.4,3.3,0.1,4.8,0.6c2.6,0.8,4.9,2,7,3.3
			c6.4,4,11.6,9.8,15.1,16.6c0.6,1.1,0.8,2.2,1.3,3.3c1,2.3,2.3,4.8,3.3,7.1c1,2.3,2,4.6,3.4,6.5c0.8,1,3.7,1.5,5,2.1
			c0.9,0.4,2.4,0.8,3.3,1.3c1.7,1,3.3,2.2,4.9,3.3C186.7,102.4,189.1,103.6,189.3,104.5L189.3,104.5z"/>
		<path class="st2" d="M139.9,62.4c-0.8,0-1.4,0.1-2,0.2v0.1h0.1c0.4,0.8,1.1,1.3,1.5,2l1.1,2.3l0.1-0.1c0.7-0.5,1-1.3,1-2.4
			c-0.3-0.3-0.3-0.7-0.6-1C140.9,63.1,140.2,62.8,139.9,62.4L139.9,62.4z"/>
	</g>
	<path class="st3" d="M186.7,136.4c0,2.8,2.2,4.7,4.7,4.7c2.5,0,4.7-1.9,4.7-4.7s-2.2-4.7-4.7-4.7
		C188.9,131.7,186.7,133.6,186.7,136.4z M194.9,136.4c0,2.1-1.6,3.7-3.6,3.7c-2,0-3.6-1.6-3.6-3.7c0-2.1,1.6-3.7,3.6-3.7
		C193.3,132.7,194.9,134.3,194.9,136.4z M192.6,139.1h1l-1.5-2.3c0.8-0.1,1.4-0.5,1.4-1.5c0-1.1-0.7-1.5-2-1.5h-2.1v5.3h0.9v-2.3
		h0.8L192.6,139.1L192.6,139.1z M190.4,136v-1.5h1c0.5,0,1.2,0.1,1.2,0.7c0,0.7-0.6,0.8-1.3,0.8L190.4,136L190.4,136z"/>
</g>
</svg>
