<?xml version="1.0" encoding="utf-8"?>
<!-- Generator: Adobe Illustrator 24.0.2, SVG Export Plug-In . SVG Version: 6.00 Build 0)  -->
<svg version="1.1" id="Capa_1" xmlns="http://www.w3.org/2000/svg" xmlns:xlink="http://www.w3.org/1999/xlink" x="0px" y="0px"
	 viewBox="0 0 200 200" style="enable-background:new 0 0 200 200;" xml:space="preserve">
<style type="text/css">
	.st0{fill:#C74634;}
</style>
<path class="st0" d="M87.3,103.7h12.5l-6.6-10.6L81,112.3h-5.5l14.7-23.1c1.1-1.6,3.3-2,4.9-0.9c0.3,0.2,0.6,0.5,0.8,0.8l14.8,23.1
	h-5.5l-2.6-4.3H90L87.3,103.7 M144.5,108V88h-4.7v22c0,0.6,0.2,1.2,0.7,1.6c0.4,0.5,1.1,0.7,1.7,0.7h21.3l2.8-4.3L144.5,108
	 M67.1,104.4c4.5,0,8.2-3.7,8.2-8.2S71.6,88,67.1,88H46.7v24.3h4.7v-20h15.5c2.2,0,3.9,1.8,3.9,3.9s-1.8,3.9-3.9,3.9H53.7l14,12.1
	h6.8l-9.4-7.9L67.1,104.4 M17.9,112.3H32c6.7-0.2,12-5.8,11.8-12.5C43.6,93.3,38.4,88.1,32,88H17.9c-6.7-0.2-12.3,5.1-12.5,11.8
	c-0.2,6.7,5.1,12.3,11.8,12.5C17.5,112.3,17.7,112.3,17.9,112.3 M31.7,108H18.2c-4.3-0.1-7.8-3.8-7.6-8.1c0.1-4.1,3.5-7.5,7.6-7.6
	h13.5c4.3-0.1,8,3.3,8.1,7.6c0.1,4.3-3.3,8-7.6,8.1C32.1,108,31.9,108,31.7,108 M120.5,112.3h14.4l2.7-4.3h-16.8
	c-4.3,0.1-8-3.3-8.1-7.6c-0.1-4.3,3.3-8,7.6-8.1c0.2,0,0.3,0,0.5,0h13.7l2.8-4.3h-16.8c-6.7-0.2-12.3,5.1-12.5,11.8
	c-0.2,6.7,5.1,12.3,11.8,12.5C120.1,112.3,120.3,112.3,120.5,112.3 M177.7,108c-3.5,0-6.6-2.3-7.6-5.7h20l2.7-4.3h-22.7
	c1-3.4,4.1-5.7,7.6-5.7h13.7l2.7-4.3h-16.8c-6.7,0.2-12,5.8-11.8,12.5c0.2,6.5,5.4,11.7,11.8,11.8h14.4l2.7-4.3H177.7"/>
</svg>
