<?xml version="1.0" encoding="utf-8"?>
<!-- Generator: Adobe Illustrator 24.0.2, SVG Export Plug-In . SVG Version: 6.00 Build 0)  -->
<svg version="1.1" id="Capa_1" xmlns="http://www.w3.org/2000/svg" xmlns:xlink="http://www.w3.org/1999/xlink" x="0px" y="0px"
	 viewBox="0 0 200 200" style="enable-background:new 0 0 200 200;" xml:space="preserve">
<style type="text/css">
	.st0{fill:#777CB4;}
	.st1{fill:url(#SVGID_1_);}
	.st2{clip-path:url(#SVGID_3_);}
	.st3{fill:url(#path3462_1_);}
	.st4{clip-path:url(#SVGID_5_);}
	.st5{clip-path:url(#SVGID_7_);}
	.st6{fill:#020203;}
	.st7{fill:#FFFFFF;}
</style>
<rect class="st0" width="200" height="200"/>
<linearGradient id="SVGID_1_" gradientUnits="userSpaceOnUse" x1="11.9802" y1="138.3442" x2="200.0002" y2="138.3442">
	<stop  offset="0" style="stop-color:#AEB2D5"/>
	<stop  offset="0.4818" style="stop-color:#494D8A"/>
	<stop  offset="1" style="stop-color:#494D8A"/>
</linearGradient>
<polygon class="st1" points="187.12,76.69 11.98,118.12 89.89,200 200,200 200,91.53 "/>
<g id="g3438" transform="matrix(1.25,0,0,-1.25,-4.4,394.29875)">
	<g id="g3440">
		<g>
			<defs>
				<path id="SVGID_2_" d="M6.72,237.1c0-22.31,34.39-40.4,76.8-40.4l0,0c42.41,0,76.8,18.09,76.8,40.4l0,0
					c0,22.31-34.39,40.4-76.8,40.4l0,0C41.11,277.5,6.72,259.41,6.72,237.1"/>
			</defs>
			<clipPath id="SVGID_3_">
				<use xlink:href="#SVGID_2_"  style="overflow:visible;"/>
			</clipPath>
			<g id="g3442" class="st2">
				<g id="g3448">
					<g id="g3450">
						
							<radialGradient id="path3462_1_" cx="4.0435" cy="154.6218" r="0.2778" gradientTransform="matrix(453.8224 0 0 -453.8224 -1782.1926 70434.1406)" gradientUnits="userSpaceOnUse">
							<stop  offset="0" style="stop-color:#AEB2D5"/>
							<stop  offset="0.3" style="stop-color:#AEB2D5"/>
							<stop  offset="0.75" style="stop-color:#494D8A"/>
							<stop  offset="1" style="stop-color:#494D8A"/>
						</radialGradient>
						<path id="path3462" class="st3" d="M6.72,237.1c0-22.31,34.39-40.4,76.8-40.4l0,0c42.41,0,76.8,18.09,76.8,40.4l0,0
							c0,22.31-34.39,40.4-76.8,40.4l0,0C41.11,277.5,6.72,259.41,6.72,237.1"/>
					</g>
				</g>
			</g>
		</g>
	</g>
	<g id="g3464">
		<g>
			<defs>
				<rect id="SVGID_4_" x="-16.48" y="180.85" width="200" height="112.5"/>
			</defs>
			<clipPath id="SVGID_5_">
				<use xlink:href="#SVGID_4_"  style="overflow:visible;"/>
			</clipPath>
			<g id="g3466" class="st4">
				<g id="g3472" transform="translate(288,27.3594)">
					<path id="path3474" class="st0" d="M-204.48,172.34c40.76,0,73.8,16.74,73.8,37.4c0,20.66-33.04,37.4-73.8,37.4
						s-73.8-16.75-73.8-37.4C-278.28,189.08-245.24,172.34-204.48,172.34"/>
				</g>
			</g>
		</g>
	</g>
	<g id="g3476">
		<g>
			<defs>
				<rect id="SVGID_6_" x="-16.48" y="180.85" width="200" height="112.5"/>
			</defs>
			<clipPath id="SVGID_7_">
				<use xlink:href="#SVGID_6_"  style="overflow:visible;"/>
			</clipPath>
			<g id="g3478" class="st5">
				<g id="g3484" transform="translate(161.7344,145.3066)">
					<path id="path3486" class="st6" d="M-113.29,87.15c3.35,0,5.85,0.62,7.44,1.84c1.57,1.21,2.65,3.29,3.21,6.21
						c0.53,2.72,0.33,4.63-0.6,5.65c-0.95,1.05-2.99,1.58-6.08,1.58h-5.36l-2.97-15.28H-113.29z M-130.81,68.33
						c-0.25,0-0.48,0.11-0.64,0.3c-0.16,0.19-0.22,0.44-0.18,0.69l7.87,40.49c0.08,0.39,0.42,0.67,0.82,0.67h16.96
						c5.33,0,9.3-1.45,11.79-4.3c2.51-2.87,3.28-6.88,2.3-11.92c-0.4-2.05-1.08-3.96-2.04-5.67c-0.96-1.71-2.22-3.29-3.75-4.7
						c-1.84-1.72-3.92-2.97-6.18-3.7c-2.22-0.72-5.08-1.09-8.49-1.09h-6.87l-1.96-10.09c-0.08-0.39-0.42-0.67-0.82-0.67H-130.81z"/>
				</g>
				<g id="g3488" transform="translate(159.2236,197.3071)">
					<path id="path3490" class="st7" d="M-111.47,49.6h4.67c3.73,0,5.02-0.82,5.46-1.31c0.73-0.81,0.87-2.52,0.4-4.94
						c-0.53-2.71-1.5-4.63-2.9-5.71c-1.43-1.1-3.76-1.66-6.93-1.66h-3.34L-111.47,49.6z M-103.47,59.32h-16.96
						c-0.8,0-1.48-0.57-1.64-1.35l-7.87-40.49c-0.1-0.49,0.03-0.99,0.35-1.38c0.32-0.38,0.79-0.61,1.29-0.61h8.82
						c0.8,0,1.48,0.57,1.64,1.35l1.83,9.42h6.18c3.5,0,6.44,0.38,8.74,1.13c2.37,0.77,4.56,2.08,6.49,3.88
						c1.6,1.47,2.91,3.12,3.91,4.9c1,1.79,1.71,3.78,2.13,5.92c1.03,5.31,0.19,9.56-2.49,12.63
						C-93.71,57.78-97.89,59.32-103.47,59.32 M-116.14,34.32h5.36c3.56,0,6.2,0.67,7.94,2.01c1.74,1.34,2.91,3.58,3.52,6.71
						c0.58,3.01,0.32,5.13-0.8,6.37c-1.12,1.24-3.35,1.86-6.7,1.86h-6.04L-116.14,34.32 M-103.47,57.65c5.1,0,8.82-1.34,11.16-4.02
						c2.34-2.68,3.04-6.42,2.11-11.22c-0.38-1.98-1.03-3.78-1.95-5.42c-0.92-1.64-2.11-3.14-3.59-4.5
						c-1.76-1.65-3.72-2.82-5.87-3.52c-2.15-0.7-4.89-1.05-8.23-1.05h-7.55l-2.09-10.76h-8.82l7.87,40.49H-103.47"/>
				</g>
				<g id="g3492" transform="translate(311.583,116.3066)">
					<path id="path3494" class="st6" d="M-221.51,108.1c-0.25,0-0.48,0.11-0.64,0.3c-0.16,0.19-0.22,0.44-0.18,0.69l3.48,17.91
						c0.33,1.7,0.25,2.93-0.23,3.44c-0.29,0.32-1.17,0.85-3.78,0.85h-6.31l-4.38-22.52c-0.08-0.39-0.42-0.67-0.82-0.67h-8.75
						c-0.25,0-0.48,0.11-0.64,0.3c-0.16,0.19-0.22,0.44-0.17,0.69l7.87,40.49c0.08,0.39,0.42,0.67,0.82,0.67h8.75
						c0.25,0,0.48-0.11,0.64-0.3c0.16-0.19,0.22-0.44,0.18-0.69l-1.9-9.77h6.78c5.17,0,8.67-0.91,10.71-2.79
						c2.08-1.91,2.73-4.97,1.93-9.09l-3.66-18.84c-0.08-0.39-0.42-0.67-0.82-0.67H-221.51z"/>
				</g>
				<g id="g3496" transform="translate(293.6611,271.0571)">
					<path id="path3498" class="st7" d="M-208.57-3.67h-8.75c-0.8,0-1.48-0.57-1.64-1.35l-7.87-40.49c-0.1-0.49,0.03-0.99,0.35-1.38
						c0.32-0.38,0.79-0.61,1.29-0.61h8.75c0.8,0,1.48,0.57,1.64,1.35l4.25,21.85h5.62c2.6,0,3.15-0.56,3.17-0.58
						c0.16-0.17,0.37-0.96,0.02-2.72l-3.48-17.91c-0.1-0.49,0.03-0.99,0.35-1.38c0.32-0.38,0.79-0.61,1.29-0.61h8.89
						c0.8,0,1.48,0.57,1.64,1.35l3.66,18.84c0.86,4.42,0.12,7.74-2.18,9.86c-2.2,2.02-5.89,3.01-11.28,3.01h-5.77l1.71,8.78
						c0.09,0.49-0.03,0.99-0.35,1.38C-207.6-3.89-208.07-3.67-208.57-3.67 M-208.57-5.33l-2.09-10.76h7.79
						c4.9,0,8.29-0.86,10.15-2.57c1.86-1.71,2.42-4.48,1.68-8.32l-3.66-18.84h-8.89l3.48,17.91c0.4,2.04,0.25,3.43-0.44,4.17
						c-0.69,0.74-2.15,1.11-4.39,1.11h-6.99l-4.51-23.19h-8.75l7.87,40.49H-208.57"/>
				</g>
				<g id="g3500" transform="translate(409.5498,145.3066)">
					<path id="path3502" class="st6" d="M-292.27,87.15c3.35,0,5.85,0.62,7.44,1.84c1.57,1.21,2.65,3.29,3.21,6.21
						c0.53,2.72,0.33,4.63-0.6,5.65c-0.95,1.05-2.99,1.58-6.08,1.58h-5.36l-2.97-15.28H-292.27z M-309.78,68.33
						c-0.25,0-0.48,0.11-0.64,0.3c-0.16,0.19-0.22,0.44-0.18,0.69l7.87,40.49c0.08,0.39,0.42,0.67,0.82,0.67h16.96
						c5.33,0,9.3-1.45,11.79-4.3c2.51-2.87,3.28-6.88,2.3-11.92c-0.4-2.05-1.09-3.96-2.04-5.67c-0.96-1.71-2.22-3.29-3.75-4.7
						c-1.84-1.72-3.92-2.97-6.18-3.7c-2.22-0.72-5.08-1.09-8.49-1.09h-6.87l-1.96-10.09c-0.08-0.39-0.42-0.67-0.82-0.67H-309.78z"/>
				</g>
				<g id="g3504" transform="translate(407.0391,197.3071)">
					<path id="path3506" class="st7" d="M-290.45,49.6h4.67c3.73,0,5.02-0.82,5.46-1.31c0.73-0.81,0.87-2.52,0.4-4.93
						c-0.53-2.71-1.5-4.63-2.9-5.71c-1.43-1.1-3.77-1.66-6.93-1.66h-3.34L-290.45,49.6z M-282.44,59.32h-16.96
						c-0.8,0-1.48-0.57-1.64-1.35l-7.87-40.49c-0.1-0.49,0.03-0.99,0.35-1.38c0.32-0.38,0.79-0.61,1.29-0.61h8.82
						c0.8,0,1.48,0.57,1.64,1.35l1.83,9.42h6.18c3.49,0,6.44,0.38,8.74,1.13c2.37,0.77,4.56,2.08,6.49,3.88
						c1.6,1.47,2.91,3.12,3.91,4.9c1,1.79,1.71,3.78,2.13,5.92c1.03,5.31,0.19,9.56-2.49,12.63
						C-272.68,57.78-276.86,59.32-282.44,59.32 M-295.12,34.32h5.36c3.56,0,6.2,0.67,7.94,2.01c1.74,1.34,2.91,3.58,3.52,6.71
						c0.58,3.01,0.32,5.13-0.8,6.37c-1.12,1.24-3.35,1.86-6.7,1.86h-6.04L-295.12,34.32 M-282.44,57.65c5.1,0,8.82-1.34,11.16-4.02
						c2.34-2.68,3.04-6.42,2.11-11.22c-0.38-1.98-1.03-3.78-1.95-5.42c-0.92-1.64-2.11-3.14-3.59-4.5
						c-1.76-1.65-3.72-2.82-5.87-3.52c-2.15-0.7-4.89-1.05-8.23-1.05h-7.55l-2.09-10.76h-8.82l7.87,40.49H-282.44"/>
				</g>
			</g>
		</g>
	</g>
</g>
</svg>
